<svg width="149" height="46" viewBox="0 0 149 46" fill="none" xmlns="http://www.w3.org/2000/svg">
<path fill-rule="evenodd" clip-rule="evenodd" d="M75.2614 7.40689L75.1684 5.9191C75.1064 4.71027 74.9514 4.4623 74.4555 4.40031C73.0917 4.27633 73.0607 4.43131 73.0607 9.57658C73.0607 13.0177 72.9863 14.5993 73.7381 15.3242C74.4421 16.0032 75.8708 15.9307 78.7639 15.9307C82.8863 15.9307 83.3203 15.8687 83.9092 15.3108C84.7461 14.4429 85.056 11.1884 84.4671 9.4216C83.9402 7.80983 82.9173 7.43788 78.5779 7.43788L75.2614 7.40689ZM45.3506 10.7544C44.8857 9.17364 44.3278 7.3139 44.1108 6.632C43.7698 5.51615 43.6149 5.39217 42.592 5.29918C41.6311 5.2062 41.4452 5.29919 41.4452 5.79512C41.4452 6.632 43.5219 13.513 44.1728 14.8458C44.6377 15.8377 44.8547 15.9307 46.1255 16.0237C47.0864 16.0857 47.6753 15.9617 47.9233 15.6827C48.1092 15.4348 48.8221 13.637 49.473 11.7153C50.124 9.79355 50.7749 8.18178 50.9298 8.11979C51.0848 8.0578 51.6737 9.51459 52.2627 11.3433C53.6884 15.8687 53.8434 16.0857 55.5482 16.0857C56.633 16.0857 57.005 15.9307 57.3769 15.3728C57.7799 14.7219 60.6625 6.07408 60.6625 5.48516C60.6625 5.33018 60.0735 5.23719 59.3606 5.29918L58.0898 5.39217L56.912 9.4216C56.4554 10.9653 56.0598 12.3565 55.8536 13.0816C55.7659 13.3903 55.7124 13.5783 55.7032 13.606C55.6412 14.009 55.0523 12.5522 54.0294 9.4526C53.4095 7.59286 52.7586 5.8881 52.5726 5.64014C52.1387 5.11321 49.69 5.11321 49.2561 5.60914C49.1011 5.82611 48.4192 7.62386 47.7993 9.57658C47.1484 11.5293 46.5285 13.2341 46.4355 13.389C46.3115 13.513 45.8156 12.3352 45.3506 10.7544ZM97.1753 9.82455C97.7642 9.23563 97.6403 6.94195 96.9584 6.13606C96.3694 5.42316 96.1835 5.39217 91.3481 5.29918L86.3578 5.2062L86.4508 6.22905L86.5438 7.25191L90.8212 7.3449L95.0676 7.43788V8.46074C95.0676 9.79355 94.7577 9.88654 90.0463 9.88654H86.3888V10.6614V11.4363H90.5732C94.2927 11.4363 94.7577 11.4983 95.0366 11.9942C95.2226 12.3042 95.2536 12.8621 95.1606 13.2341C95.0056 13.885 94.8506 13.916 90.6662 13.916H86.3578L86.4508 14.9078L86.5438 15.9307H91.3791C95.7185 15.9307 96.3074 15.8687 96.8964 15.3418C97.6403 14.6599 97.7952 12.3352 97.1753 10.9714C96.8964 10.3825 96.8964 10.1035 97.1753 9.82455ZM71.5109 10.3515C71.5109 9.11165 71.3559 8.61572 70.86 8.15078C70.3021 7.65485 69.6822 7.56187 66.7376 7.49988C62.8322 7.43788 62.3362 7.53087 61.3754 8.42974C60.7245 8.98767 60.6625 9.35961 60.6625 11.7773C60.6625 13.978 60.7864 14.5979 61.2514 15.1868C61.8403 15.8997 61.9953 15.9307 66.4586 15.9307H71.046L71.139 15.0628L71.232 14.2259H67.5125C64.5679 14.2259 63.7 14.1329 63.3281 13.73C63.0491 13.482 62.8322 13.1101 62.8322 12.9551C62.8322 12.8001 64.5679 12.6761 66.7996 12.6761C69.4652 12.6761 70.891 12.5522 71.139 12.3042C71.356 12.0872 71.5109 11.2193 71.5109 10.3515ZM21.453 23.3696L21.546 22.0368L21.639 20.735L12.8672 20.766C8.03189 20.766 3.69251 20.921 3.19658 21.045C-0.460909 22.1608 -0.832857 28.4529 2.70064 29.9717C3.53753 30.3436 5.42826 30.4986 11.0075 30.6226C16.5819 30.7693 18.3307 30.7885 18.8788 31.6094C19.1413 32.0026 19.1283 32.5798 19.1283 33.4432C19.1283 34.2749 19.1578 34.8413 18.9103 35.2323C18.3553 36.109 16.4078 36.1042 9.61267 36.2328L0.995885 36.3878V37.6276V38.8674L9.20973 38.9604C18.8184 39.0534 20.2132 38.8674 21.577 37.2867C22.4759 36.2638 22.5378 36.0778 22.5378 33.5672C22.5378 30.2507 22.0729 29.2898 20.1202 28.3909C18.8184 27.802 17.9505 27.74 11.6894 27.616C7.65994 27.554 4.56038 27.3681 4.34341 27.1821C3.87848 26.8101 3.81649 24.8264 4.25043 24.1445C4.49839 23.7416 5.92419 23.6486 12.9912 23.5246L21.453 23.3696ZM28.8919 27.709L28.799 24.2065L28.706 20.735H27.0322H25.3275L25.3894 29.7857L25.4824 38.8674L27.0942 38.9604L28.706 39.0534L28.799 34.931L28.8919 30.8086H36.1759H43.4599L43.6149 34.838L43.7698 38.8674L45.4126 38.9604L47.0244 39.0534V29.9097V20.735H45.3196H43.6149V24.2995V27.864L36.2689 27.802L28.8919 27.709ZM75.0134 38.8365C75.2304 38.6195 74.8895 38.0616 68.2874 28.081L63.3901 20.735H62.0883H60.7555L54.8973 29.5688C51.6737 34.4351 49.0701 38.5265 49.1011 38.6505C49.2251 38.9604 52.0457 39.0844 52.4796 38.8055C52.7896 38.5885 54.6493 35.7989 60.7555 26.3762C61.7473 24.8574 62.0883 24.5165 62.3672 24.8264C62.5842 25.0434 64.7229 28.3289 67.1405 32.1414L71.5729 39.0224H73.1847C74.0836 39.0224 74.8895 38.9294 75.0134 38.8365ZM98.1672 25.7873C98.1672 23.2457 97.5783 22.0988 95.9045 21.3239C94.7267 20.797 93.7658 20.735 85.8619 20.735H77.0901V29.8787V39.0224H78.7949H80.4997V34.993V30.9636H85.273H90.0463L91.968 34.5901C93.0219 36.6048 94.0448 38.4335 94.1997 38.6195C94.5717 39.0844 97.8572 39.1774 97.8572 38.7435C97.8572 38.6195 97.0203 36.8837 95.9975 34.9C94.9746 32.9473 94.1377 31.2115 94.1377 31.0565C94.1377 30.9016 94.7267 30.5916 95.4396 30.3436C97.3613 29.6617 98.1672 28.2979 98.1672 25.7873ZM123.708 22.9977C123.336 22.5328 122.592 21.8508 122.003 21.5099C121.011 20.921 120.298 20.89 110.968 20.797L100.957 20.704V29.8787V39.0534L110.813 38.9604C121.724 38.8365 122.22 38.7745 123.615 36.8217C124.327 35.7989 124.358 35.6129 124.358 29.8167C124.358 24.2685 124.327 23.8346 123.708 22.9977ZM148.225 23.3696L148.318 22.0368L148.411 20.735L139.639 20.766C134.804 20.766 130.434 20.921 129.876 21.076C129.349 21.2309 128.543 21.7889 128.109 22.3158C127.396 23.1217 127.303 23.5556 127.303 25.4153C127.303 26.7792 127.489 27.926 127.799 28.5149C128.667 30.2197 129.752 30.4366 137.78 30.6226C143.354 30.7693 145.103 30.7885 145.651 31.6094C145.913 32.0026 145.9 32.5798 145.9 33.4432C145.9 34.2735 145.93 34.8422 145.681 35.2345C145.122 36.1164 143.157 36.1065 136.292 36.1708L127.582 36.2638L127.675 37.5656L127.768 38.8674L135.982 38.9604C145.033 39.0534 146.799 38.8365 148.132 37.5656C148.969 36.7597 149 36.6358 149 33.5052C149 31.7385 148.845 30.0337 148.659 29.6617C148.473 29.3208 147.667 28.7629 146.892 28.3909C145.59 27.802 144.754 27.709 138.461 27.616C134.37 27.554 131.333 27.3681 131.116 27.1821C130.899 26.9961 130.713 26.2522 130.713 25.5083C130.713 24.7954 130.899 24.0825 131.116 23.9276C131.301 23.8036 135.269 23.6176 139.856 23.5246L148.225 23.3696ZM65.0019 40.2313C65.4048 39.0224 65.4048 38.9294 63.917 35.8919C63.0801 34.2181 62.2742 32.8233 62.1503 32.8233C61.9023 32.8233 60.6935 34.838 59.2367 37.6276C58.4618 39.1154 58.4618 39.2084 58.9267 40.3242L59.4226 41.5021H62.0263H64.5989L65.0019 40.2313ZM104.517 36.0778L104.424 29.7857L104.362 23.4936L112.142 23.5866C119.426 23.6796 119.952 23.7106 120.355 24.2685C120.696 24.7334 120.789 26.0042 120.789 29.5377C120.789 32.1104 120.696 34.528 120.603 34.9C120.293 36.0468 118.682 36.2638 111.274 36.1708L104.517 36.0778ZM80.4952 25.6632C80.4952 27.337 80.6192 27.8329 80.9911 27.9879C81.797 28.2978 92.0256 28.2048 93.1724 27.8639C94.4742 27.492 94.7532 27.12 94.7532 25.6322C94.7532 23.6485 94.3192 23.5245 86.9423 23.5245H80.4952V25.6632ZM75.2269 11.3743C75.2269 13.916 75.6298 14.2259 78.8844 14.2259C80.7441 14.2259 81.519 14.1019 81.86 13.73C82.4489 13.1411 82.5419 10.5065 81.9839 9.94853C81.736 9.70056 80.4962 9.57658 78.4195 9.57658H75.2269V11.3743ZM63.6986 9.48369C63.1407 9.63867 62.7378 10.4136 63.0167 10.8475C63.1097 11.0025 64.5045 11.1265 66.1163 11.1265H69.0609L68.9679 10.2586C68.875 9.42254 68.844 9.4217 66.5571 9.3599L66.5502 9.35971C65.2794 9.35971 64.0086 9.39071 63.6986 9.48369Z" fill="#656A86"/>
</svg>
